# xmcd
#
# Track frame offsets:
#	150
#	2063
#	22003
#	36295
#	48923
#	63290
#	76257
#	91262
#	106970
#	122195
#	142110
#	157213
#
# Disc length: 2131 seconds
# Revision: 0
# Processed by: cddbd v1.5.2PL0 Copyright (c) Steve Scherf et al.
# Submitted via: dBpowerAMP V12.0
#
DISCID=9c08510c
DTITLE=J. P. Reali - The Road To Mississippi
DYEAR=2012
DGENRE=Blues Acoustic
TTITLE0=Prelude
TTITLE1=Jefferson Lament
TTITLE2=The Road To Mississippi
TTITLE3=My Soul Or Skin
TTITLE4=I Do My Share Of Drinking
TTITLE5=Busted Boy Blues
TTITLE6=Dark, Strong And Steaming
TTITLE7=Cold Steel Blues
TTITLE8=Biscuit Baking Mama
TTITLE9=The Book Or The Bottle
TTITLE10=Bloozin' In NYC
TTITLE11=Coda
EXTD=
EXTT0=
EXTT1=
EXTT2=
EXTT3=
EXTT4=
EXTT5=
EXTT6=
EXTT7=
EXTT8=
EXTT9=
EXTT10=
EXTT11=
PLAYORDER=
